<svg width="200" height="200" xmlns="http://www.w3.org/2000/svg" viewBox="0 0 200 200">
  <!-- Background -->
  <rect width="200" height="200" fill="#f3f4f6"/>
  
  <!-- Face -->
  <ellipse cx="100" cy="110" rx="52" ry="62" fill="#fdbcb4"/>
  
  <!-- Distinctive hair -->
  <path d="M 50 40 Q 60 20, 80 30 Q 100 25, 120 30 Q 140 20, 150 40 Q 155 50, 150 60 Q 145 70, 130 65 Q 120 60, 100 65 Q 80 60, 70 65 Q 55 70, 50 60 Q 45 50, 50 40 Z" fill="#fbbf24"/>
  <ellipse cx="100" cy="55" rx="50" ry="20" fill="#fbbf24"/>
  
  <!-- Eyes -->
  <ellipse cx="85" cy="95" rx="7" ry="5" fill="#000"/>
  <ellipse cx="115" cy="95" rx="7" ry="5" fill="#000"/>
  
  <!-- Eyebrows -->
  <path d="M 75 85 Q 85 82, 95 85" stroke="#f59e0b" stroke-width="3" fill="none"/>
  <path d="M 105 85 Q 115 82, 125 85" stroke="#f59e0b" stroke-width="3" fill="none"/>
  
  <!-- Nose -->
  <ellipse cx="100" cy="110" rx="8" ry="14" fill="#e8a5a0"/>
  
  <!-- Mouth -->
  <path d="M 90 135 Q 100 140, 110 135" stroke="#000" stroke-width="2.5" fill="none"/>
  
  <!-- Suit -->
  <rect x="65" y="170" width="70" height="30" fill="#1f2937" rx="5"/>
  <rect x="95" y="170" width="10" height="30" fill="#dc2626"/>
</svg>

